<svg width="114" height="27" viewBox="0 0 114 27" fill="none" xmlns="http://www.w3.org/2000/svg">
<path d="M9.14878 25.4255C8.65342 25.9264 8.0644 26.3234 7.41576 26.5937C6.76712 26.8639 6.07173 27.002 5.36978 26.9999C4.30823 26.9999 3.2705 26.683 2.38771 26.0892C1.50491 25.4954 0.816655 24.6514 0.409885 23.6639C0.00311505 22.6763 -0.103916 21.5895 0.102313 20.5407C0.308542 19.4919 0.818778 18.5282 1.56856 17.7713L3.15402 19.3681C2.72053 19.8101 2.4264 20.3713 2.30861 20.9812C2.19081 21.591 2.2546 22.2223 2.49196 22.7957C2.72932 23.3692 3.12965 23.8592 3.64266 24.2042C4.15568 24.5492 4.75848 24.7337 5.37533 24.7347C5.78285 24.7361 6.18658 24.6559 6.56312 24.499C6.93966 24.342 7.28152 24.1113 7.56888 23.8203L9.14878 25.4255Z" fill="#0088FF"/>
<path d="M11.3004 0.0188045C9.94795 -0.0651548 8.59279 0.13265 7.3196 0.599866C6.04642 1.06708 4.88256 1.79367 3.9007 2.73426C2.92009 3.67081 2.13857 4.7982 1.60352 6.04806C1.06848 7.29792 0.791057 8.64422 0.788086 10.0053C0.788086 10.2067 0.788086 10.4052 0.807522 10.5982C0.968872 12.8881 1.96116 15.0382 3.59527 16.6387L8.79314 21.8851L11.0144 24.1223L12.3222 25.4395C12.8172 25.9368 13.4049 26.3306 14.0516 26.5984C14.6982 26.8662 15.391 27.0027 16.0901 27C17.1521 27.0007 18.1903 26.6841 19.0735 26.0904C19.9568 25.4966 20.6453 24.6523 21.0519 23.6643C21.4586 22.6763 21.5651 21.589 21.358 20.54C21.1509 19.4911 20.6396 18.5275 19.8886 17.7713L18.3115 19.3766C18.7449 19.8186 19.0391 20.3797 19.1569 20.9896C19.2747 21.5994 19.2109 22.2307 18.9735 22.8042C18.7362 23.3776 18.3358 23.8676 17.8228 24.2126C17.3098 24.5576 16.707 24.7422 16.0901 24.7431C15.6826 24.7448 15.2788 24.6648 14.9022 24.5078C14.5256 24.3508 14.1838 24.12 13.8966 23.8287L13.158 23.0876L8.83756 18.7389L5.16685 15.0419C3.92602 13.8314 3.16924 12.2045 3.03994 10.4695C3.03994 10.3157 3.03994 10.1619 3.03994 10.0081C3.0414 7.95574 3.85059 5.98766 5.29019 4.53512C6.72979 3.08257 8.68239 2.26402 10.7201 2.25884C10.8701 2.25884 11.0228 2.25884 11.1727 2.25884C13.1205 2.39743 14.9456 3.26757 16.2867 4.69699C17.6277 6.12641 18.387 8.01089 18.4142 9.97733C18.4142 10.1134 18.4142 10.2505 18.4142 10.3884C18.3035 12.1531 17.5443 13.8131 16.2845 15.0447L12.3056 19.041L13.891 20.6378L17.8589 16.6415C19.5131 15.0107 20.5033 12.8167 20.6355 10.4891C20.6355 10.3157 20.6355 10.1395 20.6355 9.96056C20.6239 7.41932 19.6527 4.97773 17.919 3.13137C16.1853 1.285 13.819 0.172191 11.3004 0.0188045Z" fill="#0088FF"/>
</svg>
